@startuml DFA
title DFA State Transition Diagram

[*] --> State0 : Start

State0 : 0
State0 --> State1 : Letter
State0 --> State2 : Digit
State0 --> Error : .
State0 --> State4 : '*'
State0 --> State6 : '/'
State0 --> State9 : '#'
State0 --> State7 : '-'
State0 --> State8 : '+'
State0 --> State10 : ;
State0 --> State11 : (
State0 --> State12 : )
State0 --> State13 : ,

State1 : ID
State1 --> State1 : Letter/Digit

State2 : CONST_ID (Integer)
State2 --> State2 : Digit
State2 --> State3 : .

State3 : CONST_ID (Decimal)
State3 --> State3 : Digit

State4 : MUL
State4 --> State5 : '*'

State5 : POWER

State6 : DIV
State6 --> State9 : /
State6 --> State14: '*'

State7 : MINUS
State7 --> State9 : '-'

State8 : PLUS

State9 : COMMENT

State10 : SEMICO

State11 : L_BRACKET

State12 : R_BRACKET

State13 : COMMA

State14: COMMENT_START
State15: COMMENT_END
State14 --> State15: '*/'

Error : Invalid State

@enduml
